<?xml version="1.0" encoding="UTF-8"?> <svg xmlns="http://www.w3.org/2000/svg" xmlns:xlink="http://www.w3.org/1999/xlink" width="149" height="147" viewBox="0 0 149 147"><defs><clipPath id="clip-path"><rect id="Rectangle_827" data-name="Rectangle 827" width="149" height="147" transform="translate(98 1123)" fill="#fff" stroke="#707070" stroke-width="1"></rect></clipPath><clipPath id="clip-path-2"><rect id="Rectangle_1" data-name="Rectangle 1" width="146.925" height="146.925" transform="translate(0 2.248) rotate(-0.877)" fill="none"></rect></clipPath></defs><g id="Mask_Group_24" data-name="Mask Group 24" transform="translate(-98 -1123)" clip-path="url(#clip-path)"><g id="Group_6" data-name="Group 6" transform="translate(97.852 1117.406)"><g id="Group_4" data-name="Group 4" transform="translate(0 0)"><g id="Group_3" data-name="Group 3" clip-path="url(#clip-path-2)"><g id="Group_2" data-name="Group 2" transform="translate(-11.925 21.105)"><path id="Path_1" data-name="Path 1" d="M934.072,1064.269a6.174,6.174,0,0,0-2.923-4q-2.107-1.128-6.153.023l-4.793,1.363,3.605,12.676,5.113-1.454q3.62-1.03,4.857-3.166a6.253,6.253,0,0,0,.416-5.012Zm-8.212-27.658a5.157,5.157,0,0,0-2.532-3.439q-1.813-.909-5.221.06l-5.539,1.575,2.969,10.439,5.539-1.576q3.408-.969,4.517-2.539a4.638,4.638,0,0,0,.388-4.1Zm37.18,23.448q2.848,10.014-2.326,17.529t-20.725,11.939L906,1099.2a1.366,1.366,0,0,1-1.687-.94L883.4,1024.722a1.366,1.366,0,0,1,.94-1.687l35.162-10a41.231,41.231,0,0,1,13-1.856,24.064,24.064,0,0,1,9.421,2.156,16.036,16.036,0,0,1,6.185,5.149,23.122,23.122,0,0,1,3.4,7.093l.121.426q2,7.03-.471,12.108a17.623,17.623,0,0,1-6.024,6.8.682.682,0,0,0,.4,1.247,20.765,20.765,0,0,1,3.605.243,16.347,16.347,0,0,1,5.831,2.084,16.18,16.18,0,0,1,4.749,4.349,20.859,20.859,0,0,1,3.2,6.8Z" transform="translate(-883.345 -982.992)" fill="#e93917"></path><path id="Path_2" data-name="Path 2" d="M1727.118,802.854a2.789,2.789,0,0,0-3.443-1.909l-34.084,9.694a1.421,1.421,0,0,0-.978,1.755l2.108,7.412,2.108,7.411a1.421,1.421,0,0,0,1.755.978l1.747-.5,3.113-.885,1.373-.39,1.372-.39a13.477,13.477,0,0,1-9.672,11.175l-.062.018-.061.017a13.477,13.477,0,0,1-16.65-9.276l-1.849-6.5-1.848-6.5a13.477,13.477,0,0,1,9.276-16.65l.061-.018.061-.017a13.482,13.482,0,0,1,15.07,5.74l14.077-4,11.709-3.33a2.02,2.02,0,0,0,1.217-2.92,38.511,38.511,0,0,0-44.182-18.32l-4.118,1.172-4.118,1.171a38.338,38.338,0,0,0-21.563,15.774,3.667,3.667,0,0,0-.453,3.025l16.8,59.085a3.665,3.665,0,0,0,1.977,2.334,38.338,38.338,0,0,0,26.636,2.066l4.118-1.172,4.117-1.171a38.436,38.436,0,0,0,27.38-43.714,38.915,38.915,0,0,0-.885-3.84Z" transform="translate(-1558.053 -773.971)" fill="#e93917"></path><g id="Group_1" data-name="Group 1" transform="translate(58.289 14.936)"><path id="Path_3" data-name="Path 3" d="M1557.739,1113.1l1.177-.334a2.363,2.363,0,0,0-1.293-4.546l-1.177.335a2.361,2.361,0,0,0-1.7,2.042c0,.005,0,.01,0,.016h0a2.359,2.359,0,0,0,3,2.486Z" transform="translate(-1533.314 -1083.399)" fill="#e93917"></path><path id="Path_4" data-name="Path 4" d="M1653.868,1370.759a1.129,1.129,0,0,0,.966.094l.053-.015a.994.994,0,0,0,.737-.585,1.818,1.818,0,0,0-.041-1.087l-.255-.9-2.3.654.251.883A1.615,1.615,0,0,0,1653.868,1370.759Z" transform="translate(-1619.941 -1312.651)" fill="#e93917"></path><path id="Path_5" data-name="Path 5" d="M1616.766,1295.518l3.382-2.089-3.979-.011Z" transform="translate(-1587.458 -1246.686)" fill="#e93917"></path><path id="Path_6" data-name="Path 6" d="M1424.287,975.657l-21.24-74.681a1.642,1.642,0,0,0-2.028-1.13l-25.5,7.251a1.641,1.641,0,0,0-1.13,2.028l.784,2.756A20.808,20.808,0,0,1,1382.03,918a28.267,28.267,0,0,1,4.132,8.626l.121.426c1.676,5.893,1.412,11.169-.784,15.686q-.391.8-.848,1.568a.742.742,0,0,0,.344,1.069,20.772,20.772,0,0,1,8.574,6.874,25.958,25.958,0,0,1,4.006,8.434l.121.426c2.229,7.839,1.368,14.9-2.541,21.02l.477,1.679a1.642,1.642,0,0,0,2.028,1.13l25.495-7.251A1.641,1.641,0,0,0,1424.287,975.657ZM1391.7,920.211a5.076,5.076,0,0,1-.72-1.566,4.966,4.966,0,0,1-.047-3.268,3.167,3.167,0,0,1,2.073-1.76l.742,2.608a2.171,2.171,0,0,0-.451.244.979.979,0,0,0-.315.365,1.122,1.122,0,0,0-.149.52,2.2,2.2,0,0,0,.1.737,1.461,1.461,0,0,0,.521.842.884.884,0,0,0,.778.118.875.875,0,0,0,.347-.178.654.654,0,0,0,.19-.322,2,2,0,0,0,.027-.514q-.017-.313-.071-.76a9.594,9.594,0,0,1-.144-1.8,3.215,3.215,0,0,1,.268-1.269,2.113,2.113,0,0,1,.708-.866,3.82,3.82,0,0,1,1.191-.541,2.9,2.9,0,0,1,1.263-.084,2.813,2.813,0,0,1,1.158.465,3.583,3.583,0,0,1,.955.993,5.258,5.258,0,0,1,.66,1.482,4.506,4.506,0,0,1,.036,2.9,3.136,3.136,0,0,1-1.946,1.724l-.723-2.541a1.225,1.225,0,0,0,.665-.586,1.665,1.665,0,0,0-.45-1.708.756.756,0,0,0-.666-.107.86.86,0,0,0-.329.166.607.607,0,0,0-.186.313,1.411,1.411,0,0,0-.073.505,5.251,5.251,0,0,0,.073.767,12.021,12.021,0,0,1,.165,1.674,3.648,3.648,0,0,1-.188,1.3,2.315,2.315,0,0,1-.674.936,3.3,3.3,0,0,1-1.231.6,3.183,3.183,0,0,1-1.31.1,2.923,2.923,0,0,1-1.223-.462A3.886,3.886,0,0,1,1391.7,920.211Zm3.358,12.468-1.959-1.091,1.123-2a4.683,4.683,0,0,1-.263-.569c-.075-.2-.143-.4-.2-.614a5.91,5.91,0,0,1-.232-2.189,4.816,4.816,0,0,1,.554-1.863,4.473,4.473,0,0,1,1.253-1.441,5.651,5.651,0,0,1,1.881-.911l.107-.03a5.161,5.161,0,0,1,2.1-.179,4.769,4.769,0,0,1,1.842.633,4.949,4.949,0,0,1,1.446,1.324,5.83,5.83,0,0,1,.915,1.894,6.175,6.175,0,0,1,.242,2.121,4.993,4.993,0,0,1-.491,1.881,4.649,4.649,0,0,1-1.219,1.482,5.232,5.232,0,0,1-1.891.95l-.107.03a5.447,5.447,0,0,1-2.387.173,4.641,4.641,0,0,1-2.025-.841Zm2.5,8.165a6.166,6.166,0,0,1-.754-1.709,4.658,4.658,0,0,1,.118-3.423,4.06,4.06,0,0,1,2.716-1.965l5.685-1.617.78,2.742-5.565,1.583a2.981,2.981,0,0,0-1.422.744,1.344,1.344,0,0,0-.158,1.324,1.364,1.364,0,0,0,.816,1.04,3.028,3.028,0,0,0,1.656-.124l5.524-1.571.787,2.769-5.644,1.605a5.249,5.249,0,0,1-1.9.221,3.339,3.339,0,0,1-1.5-.483A3.714,3.714,0,0,1,1397.561,940.845Zm2.709,9.855,1.635-1.014-.9-3.17-1.923,0-.727-2.555,10.434.343,1.008,3.545-8.7,5.756Zm2.678,9.416,2.872-2.913-.182-.642-3.424.973-.776-2.729,9.563-2.72,1.065,3.745a4.929,4.929,0,0,1,.066,3.1,2.781,2.781,0,0,1-2,1.652l-.053.015a2.588,2.588,0,0,1-1.764-.026,3.09,3.09,0,0,1-1.242-.984l-3.309,3.413Zm10.5,8.607-1.1-3.879-1.646.468.879,3.09-1.953.555-.878-3.09-1.739.494,1.164,4.093-2.113.6-1.94-6.821,9.563-2.72,1.879,6.607Z" transform="translate(-1374.33 -899.783)" fill="#e93917"></path></g></g></g></g><g id="Group_5" data-name="Group 5" transform="translate(0.154 5.909)"><path id="Path_7" data-name="Path 7" d="M2086.739,1440.461l-18.557.284.027,1.742,20.461-.313-.135-8.83-.75-48.97-.853.013Z" transform="translate(-1939.599 -1296.711)" fill="#e93917"></path><path id="Path_8" data-name="Path 8" d="M1992.47,647.3l26.763-.682.832,33.116-.192-33.764-27.44.149" transform="translate(-1872.843 -645.969)" fill="#e93917"></path><path id="Path_9" data-name="Path 9" d="M1102.353,647.335l-117.262.638.754,145.733,21.653-.182,13.881-.063,27.762-.125,61.825-.347-.027-1.742-122.515.184.321-139.979,113.615-2.893" transform="translate(-985.091 -647.173)" fill="#e93917"></path></g></g></g></svg> 